<mxfile host="Electron" agent="Mozilla/5.0 (Windows NT 10.0; Win64; x64) AppleWebKit/537.36 (KHTML, like Gecko) draw.io/24.7.17 Chrome/128.0.6613.36 Electron/32.0.1 Safari/537.36" version="24.7.17">
  <diagram name="Page-1" id="Fr1YN9uemX4wd7Bok3bW">
    <mxGraphModel dx="637" dy="379" grid="1" gridSize="10" guides="1" tooltips="1" connect="1" arrows="1" fold="1" page="1" pageScale="1" pageWidth="850" pageHeight="1100" math="0" shadow="0">
      <root>
        <mxCell id="0" />
        <mxCell id="1" parent="0" />
        <mxCell id="M6uo5KAyc27gDjUmp0lJ-3" value="" style="edgeStyle=orthogonalEdgeStyle;rounded=0;orthogonalLoop=1;jettySize=auto;html=1;" parent="1" source="M6uo5KAyc27gDjUmp0lJ-1" target="M6uo5KAyc27gDjUmp0lJ-4" edge="1">
          <mxGeometry relative="1" as="geometry">
            <mxPoint x="440" y="130" as="targetPoint" />
          </mxGeometry>
        </mxCell>
        <mxCell id="M6uo5KAyc27gDjUmp0lJ-1" value="START" style="rounded=1;whiteSpace=wrap;html=1;arcSize=50;" parent="1" vertex="1">
          <mxGeometry x="400" y="20" width="80" height="40" as="geometry" />
        </mxCell>
        <mxCell id="M6uo5KAyc27gDjUmp0lJ-6" value="" style="edgeStyle=orthogonalEdgeStyle;rounded=0;orthogonalLoop=1;jettySize=auto;html=1;" parent="1" source="M6uo5KAyc27gDjUmp0lJ-4" target="M6uo5KAyc27gDjUmp0lJ-5" edge="1">
          <mxGeometry relative="1" as="geometry" />
        </mxCell>
        <mxCell id="M6uo5KAyc27gDjUmp0lJ-4" value="&quot;User Input : &quot;" style="shape=parallelogram;perimeter=parallelogramPerimeter;whiteSpace=wrap;html=1;fixedSize=1;" parent="1" vertex="1">
          <mxGeometry x="380" y="100" width="120" height="60" as="geometry" />
        </mxCell>
        <mxCell id="M6uo5KAyc27gDjUmp0lJ-8" value="" style="edgeStyle=orthogonalEdgeStyle;rounded=0;orthogonalLoop=1;jettySize=auto;html=1;" parent="1" source="M6uo5KAyc27gDjUmp0lJ-5" target="M6uo5KAyc27gDjUmp0lJ-7" edge="1">
          <mxGeometry relative="1" as="geometry" />
        </mxCell>
        <mxCell id="M6uo5KAyc27gDjUmp0lJ-5" value="นำตัวเลขมาเลือกข้อความที่เป็นคำอ่าน" style="whiteSpace=wrap;html=1;" parent="1" vertex="1">
          <mxGeometry x="342.5" y="200" width="195" height="50" as="geometry" />
        </mxCell>
        <mxCell id="M6uo5KAyc27gDjUmp0lJ-10" value="" style="edgeStyle=orthogonalEdgeStyle;rounded=0;orthogonalLoop=1;jettySize=auto;html=1;" parent="1" source="M6uo5KAyc27gDjUmp0lJ-7" target="M6uo5KAyc27gDjUmp0lJ-9" edge="1">
          <mxGeometry relative="1" as="geometry" />
        </mxCell>
        <mxCell id="M6uo5KAyc27gDjUmp0lJ-7" value="&quot;แสดงตัวหนังสือ&quot;" style="shape=parallelogram;perimeter=parallelogramPerimeter;whiteSpace=wrap;html=1;fixedSize=1;" parent="1" vertex="1">
          <mxGeometry x="365" y="290" width="150" height="60" as="geometry" />
        </mxCell>
        <mxCell id="M6uo5KAyc27gDjUmp0lJ-9" value="END" style="rounded=1;whiteSpace=wrap;html=1;arcSize=50;" parent="1" vertex="1">
          <mxGeometry x="400" y="390" width="80" height="40" as="geometry" />
        </mxCell>
      </root>
    </mxGraphModel>
  </diagram>
</mxfile>
